<svg xmlns="http://www.w3.org/2000/svg" viewBox="0 0 48 48" aria-hidden="true"><path fill="#1877F2" d="M24 4C12.954 4 4 12.954 4 24c0 9.94 7.615 18.163 17.356 19.8V29.59h-5.224V24h5.224v-4.263c0-5.152 3.046-8.007 7.71-8.007 2.233 0 4.568.398 4.568.398v5.02h-2.573c-2.536 0-3.326 1.574-3.326 3.187V24h5.664l-.904 5.59h-4.76V43.8C36.385 42.163 44 33.94 44 24 44 12.954 35.046 4 24 4z"/><path fill="#fff" d="M33.096 29.59L34 24h-5.664v-3.665c0-1.613.79-3.187 3.326-3.187H34.235v-5.02s-2.335-.398-4.568-.398c-4.664 0-7.71 2.855-7.71 8.007V24H16.733v5.59h5.224V43.8c.68.11 1.378.167 2.09.167s1.41-.057 2.09-.167V29.59h4.76z"/></svg>