<svg xmlns="http://www.w3.org/2000/svg" viewBox="0 0 48 48" aria-hidden="true"><path fill="#000" d="M33.5 25.9c-.1-5.3 4.3-7.8 4.5-7.9-2.5-3.7-6.4-4.2-7.8-4.3-3.3-.3-6.4 1.9-8 1.9-1.6 0-4.2-1.9-6.9-1.8-3.6.1-6.9 2.1-8.7 5.3-3.7 6.4-.9 15.9 2.6 21.1 1.7 2.5 3.8 5.3 6.5 5.2 2.6-.1 3.6-1.7 6.8-1.7s4.1 1.7 6.9 1.6c2.9 0 4.7-2.5 6.4-5 2-2.9 2.8-5.8 2.9-6 0-.1-5.5-2.1-5.6-8.4z"/><path fill="#000" d="M27.8 10.6c1.5-1.9 2.5-4.6 2.2-7.2-2.1.1-4.7 1.4-6.2 3.3-1.4 1.7-2.6 4.5-2.3 7.1 2.4.2 4.8-1.3 6.3-3.2z"/></svg>