<svg xmlns="http://www.w3.org/2000/svg" viewBox="0 0 48 48" aria-hidden="true"><path fill="#FFC107" d="M43.611 20.083H42V20H24v8h11.303c-1.649 4.657-6.08 8-11.303 8-6.627 0-12-5.373-12-12s5.373-12 12-12c3.059 0 5.842 1.153 7.957 3.043l5.657-5.657C33.642 6.053 29.082 4 24 4 12.955 4 4 12.955 4 24s8.955 20 20 20 20-8.955 20-20c0-1.341-.138-2.651-.389-3.917z"/><path fill="#FF3D00" d="M6.306 14.691l6.571 4.819C14.6 16.104 18.961 14 24 14c3.059 0 5.842 1.153 7.957 3.043l5.657-5.657C33.642 6.053 29.082 4 24 4c-7.732 0-14.308 4.372-17.694 10.691z"/><path fill="#4CAF50" d="M24 44c5.167 0 9.86-1.977 13.39-5.197l-6.18-5.238C29.176 35.447 26.719 36.5 24 36.5c-5.198 0-9.612-3.317-11.246-7.946l-6.54 5.035C9.508 39.657 16.227 44 24 44z"/><path fill="#1976D2" d="M43.611 20.083H42V20H24v8h11.303c-.792 2.237-2.223 4.164-4.093 5.566l.003-.002 6.18 5.238C39.131 36.648 44 31.5 44 24c0-1.341-.138-2.651-.389-3.917z"/></svg>